<?xml version="1.0" encoding="utf-8"?>
<!-- Generator: Adobe Illustrator 16.0.0, SVG Export Plug-In . SVG Version: 6.00 Build 0)  -->
<!DOCTYPE svg PUBLIC "-//W3C//DTD SVG 1.1//EN" "http://www.w3.org/Graphics/SVG/1.1/DTD/svg11.dtd">
<svg version="1.1" id="Layer_1" xmlns="http://www.w3.org/2000/svg" xmlns:xlink="http://www.w3.org/1999/xlink" x="0px" y="0px"
	 width="283.46px" height="283.46px" viewBox="0 0 283.46 283.46" enable-background="new 0 0 283.46 283.46" xml:space="preserve">
<path fill="#FFFFFF" d="M18.741,68.738l123.022,123.122L264.786,68.738c4.301-4.301,11.303-4.301,15.503-0.1
	c4.301,4.3,4.2,11.302-0.101,15.503L149.465,214.864l0,0l0,0c-2.001,2.001-4.601,3.001-7.301,3.101c-0.201,0-0.3,0-0.5,0
	c-0.101,0-0.2,0-0.3,0c-2.701-0.1-5.401-1.1-7.401-3.101l0,0l0,0L3.238,84.241c-4.3-4.301-4.3-11.302-0.1-15.503
	C7.438,64.437,14.44,64.537,18.741,68.738z"/>
</svg>
