<svg xmlns="http://www.w3.org/2000/svg" width="4323" height="4323" viewBox="0 0 4322.8 4322.8"><path d="M2458.3 1964.9c-4.3-7.4-7-8.8-10.5-8.8l-26.4 0.1c-3.8 0-6.9 3.1-6.9 6.9v32.8c0 3.8 3.1 6.9 6.9 6.9h50.3c0.9 0 2.3-0.8 3.2-2.4 0.7-1.2 1.4-3.2 0.1-5.7L2458.3 1964.9z" fill="#000"/><path d="M2497 1988.2l-22-35.1c-6.1-10.5-12.4-17.5-23.3-17.5l-37.7 0.1c-4.3 0-8.3 1.4-11.6 3.8v-20.5c0-10.8-9.5-19.6-21.2-19.6h-145.9c-11.7 0-21.2 8.8-21.2 19.6v128.4c0 10.8 9.5 19.6 21.2 19.6h20.6l0 0c2 15.5 15.3 27.6 31.3 27.6s29.3-12 31.3-27.6h95.9c2 15.5 15.3 27.6 31.3 27.6h0c16.1 0 29.3-12 31.3-27.6l0 0h8.9c10.8 0 19.6-8.8 19.6-19.6v-30.1C2505.4 2008.6 2501.7 1995.7 2497 1988.2zM2310.3 2067.1c-1.9 11.1-11.6 19.6-23.2 19.6s-21.3-8.5-23.2-19.6c-0.2-1.3-0.3-2.6-0.3-4 0-1.4 0.1-2.7 0.3-4 1.9-11.1 11.6-19.6 23.2-19.6s21.3 8.5 23.2 19.6c0.2 1.3 0.3 2.6 0.3 4C2310.6 2064.5 2310.5 2065.8 2310.3 2067.1zM2394.3 1955.3v103.8h-76c-2-15.5-15.3-27.6-31.3-27.6 -16.1 0-29.3 12-31.3 27.6h-20.6c-7.3 0-13.2-5.2-13.2-11.6v-128.4c0-6.4 5.9-11.6 13.2-11.6h145.9c7.3 0 13.2 5.2 13.2 11.6V1955.3zM2445.6 2086.7c-13 0-23.6-10.6-23.6-23.6 0-13 10.6-23.6 23.6-23.6 13 0 23.6 10.6 23.6 23.6C2469.2 2076.1 2458.6 2086.7 2445.6 2086.7zM2497.4 2047.6c0 6.4-5.2 11.6-11.6 11.6h-8.9c-2-15.5-15.3-27.6-31.3-27.6s-29.3 12-31.3 27.6h-11.9v-103.8c0-6.4 5.2-11.6 11.6-11.6l37.7-0.1c6.4 0 10.6 3.4 16.5 13.5l22.1 35.2c3.9 6.2 7.2 17.7 7.2 25V2047.6z" fill="#000"/><path d="M2343.5 1950.6c-1.4-1.4-3.4-2.2-5.4-2.2 -2 0-4 0.8-5.4 2.2l-33.6 33.6 -15.4-15.4c-1.4-1.4-3.4-2.2-5.4-2.2 -2.1 0-4 0.8-5.4 2.2l-7.8 7.8c-1.5 1.4-2.2 3.4-2.3 5.4 0 2.1 0.8 4 2.3 5.4l28.6 28.6c1.4 1.4 3.4 2.2 5.4 2.2h0c2 0 4-0.8 5.4-2.2l46.8-46.8c1.5-1.4 2.2-3.4 2.2-5.4 0-2.1-0.8-4-2.2-5.4L2343.5 1950.6z" fill="#567893"/></svg>
