<svg xmlns="http://www.w3.org/2000/svg" id="Layer_1" width="283" height="283" viewBox="0 0 283.5 283.5"><style>.a{fill:#999;}</style><path d="M197 170c-8.4-4.8-17.5-3-24.4 3.8 -1.7 1.6-3.1 3.6-4.8 5.1 -2.9 2.4-5.8 5.3-9.2 6.8 -6.5 2.8-12.1-0.4-17.2-4.1 -11.6-8.3-21.6-18.2-29.6-30.1 -3.8-5.7-7.3-11.7-9.8-18 -3.1-8-0.9-13.2 5.8-18.4 2.9-2.2 5.6-4.6 8.5-6.7 8.8-6.2 10.7-15.2 6.3-24.5 -4.5-9.5-10.9-18.1-16.6-27 -0.9-1.3-2.3-2.3-3.6-3.3 -4.7-3.7-11.3-4.5-16-0.9 -6.2 4.9-12.8 9.7-17.6 15.8 -13.6 17.3-15.3 37.4-10.1 58.1 3.9 15.6 11.7 29.4 21.1 42.3 14.6 19.8 31.1 37.6 51.9 51 13.3 8.5 27.4 15 43.9 14.6 9.9 0.2 19.8-1.4 28.4-6.8 6.6-4.2 12.5-9.7 18.4-15 6.6-5.9 7.4-13.1 1.7-19.9C216.4 183.9 207.4 175.9 197 170z" class="a"/><path d="M141.7 0C63.6 0 0 63.6 0 141.7s63.6 141.7 141.7 141.7c78.2 0 141.7-63.6 141.7-141.7S219.9 0 141.7 0zM141.7 273.8c-72.8 0-132.1-59.2-132.1-132.1S68.9 9.7 141.7 9.7c72.8 0 132.1 59.2 132.1 132.1S214.6 273.8 141.7 273.8z" class="a"/></svg>
