<?xml version="1.0" encoding="utf-8"?>
<!-- Generator: Adobe Illustrator 16.0.0, SVG Export Plug-In . SVG Version: 6.00 Build 0)  -->
<!DOCTYPE svg PUBLIC "-//W3C//DTD SVG 1.1//EN" "http://www.w3.org/Graphics/SVG/1.1/DTD/svg11.dtd">
<svg version="1.1" id="Layer_1" xmlns="http://www.w3.org/2000/svg" xmlns:xlink="http://www.w3.org/1999/xlink" x="0px" y="0px"
	 width="212.6px" height="283.46px" viewBox="0 0 212.6 283.46" enable-background="new 0 0 212.6 283.46" xml:space="preserve">
<g>
	<path fill="#B4802C" d="M18.354,150.284L106.3,269.835l87.777-119.215c7.175-11.833,10.812-26.963,10.812-44.976
		c0-54.347-44.228-98.562-98.59-98.562c-54.362,0-98.589,44.215-98.589,98.562C7.71,122.991,11.489,138.835,18.354,150.284z"/>
	<path d="M106.299-0.625C47.686-0.625,0,47.047,0,105.644c0,18.806,4.206,36.127,11.842,48.772l94.456,128.423l94.247-128.017
		c7.998-13.088,12.054-29.633,12.054-49.178C212.599,47.047,164.912-0.625,106.299-0.625z M106.299,7.082
		c54.362,0,98.59,44.215,98.59,98.562c0,18.013-3.637,33.143-10.812,44.976L106.3,269.835L18.354,150.284
		c-6.865-11.449-10.644-27.293-10.644-44.64C7.71,51.297,51.937,7.082,106.299,7.082z"/>
</g>
<g>
	<path fill="#CCC0AE" d="M106.299,66.824c-21.411,0-38.831,17.414-38.831,38.819s17.419,38.819,38.831,38.819
		s38.83-17.414,38.83-38.819S127.71,66.824,106.299,66.824z"/>
	<path d="M106.299,59.117c-25.662,0-46.541,20.872-46.541,46.526c0,25.655,20.878,46.527,46.541,46.527s46.54-20.872,46.54-46.527
		C152.839,79.989,131.961,59.117,106.299,59.117z M106.299,144.463c-21.411,0-38.831-17.414-38.831-38.819
		s17.419-38.819,38.831-38.819s38.83,17.414,38.83,38.819S127.71,144.463,106.299,144.463z"/>
</g>
</svg>
