<svg xmlns="http://www.w3.org/2000/svg" width="283" height="283" viewBox="0 0 283.5 283.5"><style>.a{fill:#f4dba9;}.b{fill:#dbb468;}</style><path d="M281.2 59.1c-0.1 0-138-55.8-138-55.8 -0.9-0.4-2-0.4-2.9 0L87.5 24.7c0 0 0 0-0.1 0L2.4 59C1 59.6 0 61.1 0 62.7v158.1c0 1.6 1 3 2.4 3.6l137.8 55.7c1.2 0.4 2.2 0.3 2.9 0l137.8-55.7c1.5-0.6 2.4-2 2.4-3.6V62.8C283.5 62.3 283.3 60.1 281.2 59.1z"/><polygon points="222.9 89.8 222.9 128.8 198.4 138.7 198.4 99.7 " class="a"/><polygon points="88.9 32.5 216.4 84 194.5 92.8 67.1 41.3 " class="a"/><polygon points="99.4 28.3 141.7 11.2 269.1 62.7 226.8 79.8 " class="b"/><polygon points="14.3 62.7 56.7 45.6 184.1 97 184.1 97 141.7 114.1 " class="b"/><path d="M145.6 270.7V121l45-18.2v41.7c0 1.3 0.6 2.5 1.7 3.2 1.1 0.7 2.4 0.9 3.6 0.4l32.3-13c1.5-0.6 2.4-2 2.4-3.6V86.6l45-18.2v149.7L145.6 270.7z" class="b"/><polygon points="7.8 218.2 7.8 68.5 137.8 121 137.8 270.7 " class="b"/></svg>
