<svg xmlns="http://www.w3.org/2000/svg" width="283" height="283" viewBox="0 0 283.5 283.5"><path d="M141.7 0C63.6 0 0 63.6 0 141.7s63.6 141.7 141.7 141.7c78.2 0 141.7-63.6 141.7-141.7S219.9 0 141.7 0zM141.7 273.8c-72.8 0-132.1-59.2-132.1-132.1S68.9 9.7 141.7 9.7c72.8 0 132.1 59.2 132.1 132.1S214.6 273.8 141.7 273.8z" fill="#999"/><path d="M114.6 226.6c0-1.1 0-2.1 0-3 0-14.4 0-28.8 0-43.1 0-6.6 3.3-9.9 10-9.9 11.5 0 23 0 34.5 0 6.6 0 9.9 3.4 9.9 10 0 11.5 0 23 0 34.5 0 3.8 0 7.7 0 11.6 1.2 0.1 2 0.1 2.7 0.1 14.5 0 28.9 0 43.4 0 6.1 0 9.5-3.4 9.5-9.5 0-23.9 0-47.8 0-71.7 0-6.1-2.1-11.5-6.4-15.8 -23.3-23.4-46.7-46.8-70.1-70.2 -3.9-3.9-8.9-3.8-12.9 0 -2.2 2.1-4.3 4.3-6.5 6.5 -20.9 20.9-41.8 41.8-62.7 62.7 -4.5 4.5-7.1 10-7.1 16.4 -0.1 24-0.1 48 0 72 0 6.4 3.3 9.6 9.7 9.6 14.5 0 28.9 0 43.4 0C112.7 226.8 113.5 226.7 114.6 226.6z" fill="#999"/></svg>
