<svg xmlns="http://www.w3.org/2000/svg" width="283" height="283" viewBox="0 0 283.5 283.5"><path d="M227.4 12.2H56.1c-5.7 0-10.4 4.7-10.4 10.4v238.3c0 5.7 4.7 10.4 10.4 10.4h171.3c5.7 0 10.4-4.7 10.4-10.4V22.6C237.8 16.8 233.1 12.2 227.4 12.2zM56.1 20.6v2c0 0 0 0 0 0L56.1 20.6z"/><polygon points="227.4 22.6 227.4 260.9 56.1 260.9 56.1 22.6 " fill="#dbb468"/><path d="M217.5 66.1c-2.9-2.9-7.6-2.9-10.5 0l-11.7 11.7c-1.3-0.7-2.7-1.2-4.2-1.6 -12.2-3.3-24.9 4-28.2 16.3 -0.4 1.5-0.6 3-0.7 4.4l-27 7.2 -10.5-10.5c-2.9-2.9-7.6-2.9-10.5 0 -2.9 2.9-2.9 7.6 0 10.5l4.5 4.5 -30.9 8.3c-3 0.8-5 3.3-5.5 6.1l-18.6 11.2 20.4-5.3c1.8 2 4.7 3 7.5 2.3l39.2-10.5 32.1 32.1 -10.5 39.3c-0.8 3 0.4 6.1 2.7 7.8l-5.1 19.6 11-18.2c2.7-0.6 5-2.5 5.7-5.4l8.3-31 4.5 4.5c2.9 2.9 7.6 2.9 10.5 0 2.9-2.9 2.9-7.6 0-10.5l-10.5-10.5 7.2-27c9.6-0.6 18.1-7.2 20.7-17 1.5-5.6 0.8-11.3-1.6-16.1l11.7-11.7C220.4 73.7 220.4 69 217.5 66.1zM167.4 136.3l-20.1-20.1 18.8-5c1.7 2.5 3.8 4.6 6.3 6.3L167.4 136.3zM193.1 100.6c-1.2 4.4-5.7 7-10.1 5.8 -4.4-1.2-7-5.7-5.8-10.1 1.2-4.4 5.7-7 10.1-5.8C191.7 91.7 194.3 96.2 193.1 100.6z"/></svg>
