<svg xmlns="http://www.w3.org/2000/svg" width="213" height="283" viewBox="0 0 212.6 283.5"><path d="M15.1 152.5l91.2 124 91-123.6c7.5-12.4 11.3-28.2 11.3-46.9 0-56.4-45.9-102.4-102.4-102.4C49.9 3.6 3.9 49.5 3.9 106 3.9 124 7.9 140.6 15.1 152.5z" fill="#B4802C"/><path d="M106.3-0.3C47.7-0.3 0 47.4 0 106c0 18.8 4.2 36.1 11.8 48.7l94.5 128.5 94.3-128.1c8-13 12-29.5 12-49.1C212.6 47.4 164.9-0.3 106.3-0.3zM106.3 3.6c56.4 0 102.4 45.9 102.4 102.4 0 18.7-3.8 34.5-11.3 46.9l-91 123.7L15.1 152.5c-7.2-12-11.2-28.5-11.2-46.6C3.9 49.5 49.9 3.6 106.3 3.6z"/><path d="M106.3 64.5c-22.9 0-41.5 18.6-41.5 41.5s18.6 41.5 41.5 41.5c22.9 0 41.5-18.6 41.5-41.5S129.2 64.5 106.3 64.5z" fill="#CCC0AE"/><path d="M106.3 60.5c-25.1 0-45.4 20.4-45.4 45.4S81.2 151.4 106.3 151.4s45.4-20.4 45.4-45.4S131.4 60.5 106.3 60.5zM106.3 147.5c-22.9 0-41.5-18.6-41.5-41.5s18.6-41.5 41.5-41.5c22.9 0 41.5 18.6 41.5 41.5S129.2 147.5 106.3 147.5z"/></svg>
