<svg xmlns="http://www.w3.org/2000/svg" width="283" height="190" viewBox="0 0 283.5 189.9"><style>.a{fill:#fff;}</style><path d="M275.3 86.3l-21.4-34.1c-5.9-10.2-12.1-17-22.7-17l-36.7 0.1c-4.2 0-8.1 1.4-11.2 3.7V19C183.2 8.5 174 0 162.6 0H20.7C9.3 0 0 8.5 0 19v125c0 10.5 9.3 19 20.7 19h20l0 0c1.9 15.1 14.8 26.8 30.5 26.8 15.6 0 28.5-11.7 30.5-26.8h93.3c1.9 15.1 14.8 26.8 30.5 26.8h0c15.6 0 28.5-11.7 30.5-26.8l0 0h8.7c10.5 0 19-8.5 19-19v-29.3C283.5 106.1 279.9 93.6 275.3 86.3z" fill="#000"/><path d="M255.8 155.3h8.7c6.2 0 11.2-5 11.2-11.2v-29.3c0-7.1-3.2-18.3-7-24.4l-21.5-34.3c-5.7-9.9-9.8-13.2-16-13.2l-36.7 0.1c-6.2 0-11.3 5-11.3 11.2v101h11.6c1.9-15.1 14.8-26.8 30.5-26.8C240.9 128.5 253.9 140.2 255.8 155.3z" fill="#f3daa9"/><path d="M71.1 128.5c15.6 0 28.5 11.7 30.5 26.8h73.9V54.3 19c0-6.2-5.8-11.2-12.9-11.2H20.7c-7.1 0-12.9 5-12.9 11.2v125c0 6.2 5.8 11.2 12.9 11.2h20C42.6 140.2 55.5 128.5 71.1 128.5z" fill="#dab468"/><path d="M204.1 96.1h41.9c0.7 0 1.9-0.7 2.7-2 0.6-1 1.1-2.7 0.1-4.8L234.8 64.6c-3.6-6.2-5.8-7.4-8.7-7.4l-22 0.1c-3.2 0-5.8 2.6-5.8 5.7v27.3C198.4 93.5 200.9 96.1 204.1 96.1z" style="fill:#fff;stroke-width:8;stroke:#000"/><path d="M71.1 136.3c-11.3 0-20.7 8.2-22.6 19 -0.2 1.3-0.3 2.6-0.3 3.9 0 1.3 0.1 2.6 0.3 3.9 1.9 10.8 11.3 19 22.6 19 11.3 0 20.7-8.2 22.6-19 0.2-1.3 0.3-2.6 0.3-3.9 0-1.3-0.1-2.6-0.3-3.9C91.8 144.5 82.4 136.3 71.1 136.3z" class="a"/><path d="M225.3 136.3c-12.6 0-22.9 10.3-22.9 22.9 0 12.6 10.3 22.9 22.9 22.9s22.9-10.3 22.9-22.9C248.2 146.5 237.9 136.3 225.3 136.3z" class="a"/><path d="M44.8 70.2c0-2.1 0.8-4.1 2.3-5.6l8-8c1.5-1.5 3.5-2.3 5.6-2.3 2.1 0 4.1 0.8 5.6 2.3l15.8 15.9 34.6-34.7c1.5-1.5 3.5-2.3 5.6-2.3 2.1 0 4.1 0.8 5.6 2.3l8 8c1.5 1.5 2.3 3.5 2.3 5.6 0 2.1-0.8 4.1-2.3 5.6l-48.2 48.2c-1.5 1.5-3.5 2.3-5.6 2.3h0c-2.1 0-4.1-0.8-5.6-2.3L47.2 75.8C45.7 74.3 44.8 72.3 44.8 70.2z" style="fill:#fff;stroke-width:8;stroke:#000"/></svg>
