<svg xmlns="http://www.w3.org/2000/svg" width="283" height="255" viewBox="0 0 283.5 255.1"><path d="M31.2 243.2c0 2.7 2.2 4.8 4.8 4.8h211.4c2.7 0 4.8-2.2 4.8-4.8V87.1H31.2L31.2 243.2z" fill="#dab468"/><path d="M24.2 80v163.2c0 6.6 5.3 11.9 11.9 11.9h211.4c6.6 0 11.9-5.3 11.9-11.9L259.3 80H24.2zM252.2 243.2c0 2.7-2.2 4.8-4.8 4.8H36.1c-2.7 0-4.8-2.2-4.8-4.8l0-156.1h221V243.2z"/><path d="M271.6 40.5H11.9c-2.7 0-4.8 2.2-4.8 4.8v29.9c0 2.7 2.2 4.8 4.8 4.8h259.7c2.7 0 4.8-2.2 4.8-4.8V45.3C276.4 42.7 274.2 40.5 271.6 40.5z" fill="#f3daa9"/><path d="M271.6 33.4H11.9c-6.6 0-11.9 5.3-11.9 11.9v29.9c0 6.6 5.3 11.9 11.9 11.9h259.7c6.6 0 11.9-5.3 11.9-11.9V45.3C283.5 38.8 278.1 33.4 271.6 33.4zM276.4 75.2c0 2.7-2.2 4.8-4.8 4.8H11.9c-2.7 0-4.8-2.2-4.8-4.8V45.3c0-2.7 2.2-4.8 4.8-4.8h259.7c2.7 0 4.8 2.2 4.8 4.8V75.2z"/><path d="M191.2 129c-12-12-31.5-12-43.5 0l-5.9 5.9 -5.9-5.9c-12-12-31.5-12-43.5 0 -12 12-12 31.5 0 43.6l49.5 49.5 49.5-49.5C203.2 160.6 203.2 141.1 191.2 129z" style="fill:#fff;stroke-width:7;stroke:#000"/><path d="M179.7 6.2C175.7 2.2 170.4 0 164.7 0S153.8 2.2 149.8 6.2l-8.1 8.1 -8.1-8.1C129.7 2.2 124.4 0 118.7 0c-5.6 0-10.9 2.2-14.9 6.2s-6.2 9.3-6.2 14.9c0 5.6 2.2 11 6.2 14.9l4.4 4.4h67.1l4.4-4.4c4-4 6.2-9.3 6.2-14.9C185.9 15.5 183.7 10.2 179.7 6.2zM174.7 31.1l-2.3 2.4h-61.2l-2.3-2.4c-2.7-2.7-4.1-6.2-4.1-9.9 0-3.8 1.5-7.3 4.1-9.9s6.2-4.1 9.9-4.1c3.8 0 7.3 1.5 9.9 4.1l13.1 13.1 13.1-13.1c2.7-2.7 6.2-4.1 9.9-4.1s7.3 1.5 9.9 4.1c2.7 2.7 4.1 6.2 4.1 9.9C178.8 24.9 177.3 28.4 174.7 31.1z"/></svg>
