<svg xmlns="http://www.w3.org/2000/svg" width="283" height="283" viewBox="0 0 283.5 283.5"><style>.a{fill:#000;}</style><path d="M222.4 0H61.1C27.4 0 0 27.4 0 61.1v161.3c0 33.7 27.4 61.1 61.1 61.1h161.3c33.7 0 61.1-27.4 61.1-61.1V61.1C283.5 27.4 256.1 0 222.4 0zM262.1 222.4c0 21.9-17.8 39.7-39.7 39.7H61.1c-21.9 0-39.7-17.8-39.7-39.7V61.1c0-21.9 17.8-39.7 39.7-39.7h161.3c21.9 0 39.7 17.8 39.7 39.7V222.4z" class="a"/><path d="M141.7 64.3c-42.7 0-77.5 34.7-77.5 77.5 0 42.7 34.8 77.5 77.5 77.5 42.7 0 77.5-34.7 77.5-77.5C219.2 99 184.4 64.3 141.7 64.3zM141.7 197.9c-30.9 0-56.1-25.2-56.1-56.1 0-30.9 25.2-56.1 56.1-56.1 30.9 0 56.1 25.2 56.1 56.1C197.9 172.7 172.7 197.9 141.7 197.9z" class="a"/><circle cx="229.4" cy="57.1" r="12.6" class="a"/></svg>
