<?xml version="1.0" encoding="utf-8"?>
<!-- Generator: Adobe Illustrator 16.0.0, SVG Export Plug-In . SVG Version: 6.00 Build 0)  -->
<!DOCTYPE svg PUBLIC "-//W3C//DTD SVG 1.1//EN" "http://www.w3.org/Graphics/SVG/1.1/DTD/svg11.dtd">
<svg version="1.1" id="Layer_1" xmlns="http://www.w3.org/2000/svg" xmlns:xlink="http://www.w3.org/1999/xlink" x="0px" y="0px"
	 width="4322.83px" height="4322.83px" viewBox="0 0 4322.83 4322.83" enable-background="new 0 0 4322.83 4322.83"
	 xml:space="preserve">
<g>
	<path fill="#B4802C" d="M2071.711,2171.524l89.589,121.816l89.415-121.473c7.222-11.954,10.883-27.284,10.883-45.569
		c0-55.305-44.994-100.299-100.3-100.299c-55.305,0-100.299,44.994-100.299,100.299
		C2061,2143.907,2064.802,2159.954,2071.711,2171.524z"/>
	<path d="M2161.299,2014c-61.922,0-112.299,50.377-112.299,112.299c0,19.878,4.466,38.223,12.575,51.655l99.722,135.635
		l99.501-135.204c8.494-13.902,12.801-31.426,12.801-52.085C2273.599,2064.377,2223.221,2014,2161.299,2014z M2161.299,2026
		c55.306,0,100.3,44.994,100.3,100.299c0,18.285-3.661,33.615-10.883,45.569l-89.415,121.473l-89.589-121.816
		c-6.909-11.57-10.711-27.617-10.711-45.225C2061,2070.994,2105.994,2026,2161.299,2026z"/>
</g>
<g>
	<path fill="#CCC0AE" d="M2161.299,2088.008c-21.114,0-38.292,17.178-38.292,38.291c0,21.114,17.178,38.291,38.292,38.291
		c21.113,0,38.291-17.177,38.291-38.291C2199.59,2105.186,2182.412,2088.008,2161.299,2088.008z"/>
	<path d="M2161.299,2076.008c-27.731,0-50.292,22.561-50.292,50.291s22.561,50.291,50.292,50.291
		c27.73,0,50.291-22.561,50.291-50.291S2189.029,2076.008,2161.299,2076.008z M2161.299,2164.59
		c-21.114,0-38.292-17.177-38.292-38.291c0-21.113,17.178-38.291,38.292-38.291c21.113,0,38.291,17.178,38.291,38.291
		C2199.59,2147.413,2182.412,2164.59,2161.299,2164.59z"/>
</g>
</svg>
