<svg xmlns="http://www.w3.org/2000/svg" width="213" height="283" viewBox="0 0 212.6 283.5"><path d="M11.7 154.9C3.6 141.4 0 123.8 0 106.3 0 47.6 47.6 0 106.3 0c58.7 0 106.3 47.6 106.3 106.3 0 17.7-3.2 34.7-11.9 49l0 0 -94.4 128.2L11.7 154.9z" fill="#000"/><line x1="11.7" y1="154.9" x2="106.3" y2="283.5" fill="none"/><path d="M106.4 259.6L27.3 152.1l0 0c-8.3-13.8-13.1-30.1-13.1-47.4 0-50.9 41.2-92.1 92.1-92.1 50.9 0 92.1 41.2 92.1 92.1 0 18.4-5.4 35.5-14.7 49.9l0 0L106.4 259.6z" fill="#A58958"/><circle cx="106.3" cy="106.3" r="44.3" fill="#000"/><circle cx="106.3" cy="106.3" r="31.2" fill="#fff"/></svg>
