<svg xmlns="http://www.w3.org/2000/svg" width="213" height="283" viewBox="0 0 212.6 283.5"><path d="M21.5 149.1l84.8 115.3 84.6-114.9c6.8-11.3 10.3-25.8 10.3-43.1 0-52.3-42.6-94.9-94.9-94.9s-94.9 42.6-94.9 94.9C11.4 123 15 138.2 21.5 149.1z" fill="#dab468"/><path d="M106.3 0.1C47.7 0.1 0 47.7 0 106.3c0 18.8 4.2 36.2 11.9 48.9l94.4 128.3L200.5 155.6c8-13.2 12.1-29.7 12.1-49.3C212.6 47.7 164.9 0.1 106.3 0.1zM106.3 11.4c52.4 0 94.9 42.6 94.9 94.9 0 17.3-3.5 31.8-10.3 43.1l-84.6 114.9L21.5 149.1c-6.5-10.9-10.1-26.1-10.1-42.8C11.4 54 53.9 11.4 106.3 11.4z"/><path d="M106.3 70.1c-20 0-36.2 16.3-36.2 36.2 0 20 16.3 36.2 36.2 36.2 20 0 36.2-16.3 36.2-36.2C142.5 86.3 126.3 70.1 106.3 70.1z" fill="#fff"/><path d="M106.3 58.7c-26.2 0-47.6 21.3-47.6 47.6 0 26.2 21.4 47.6 47.6 47.6 26.2 0 47.6-21.3 47.6-47.6C153.9 80.1 132.5 58.7 106.3 58.7zM106.3 142.5c-20 0-36.2-16.3-36.2-36.2 0-20 16.3-36.2 36.2-36.2 20 0 36.2 16.3 36.2 36.2C142.5 126.3 126.3 142.5 106.3 142.5z"/></svg>
