<svg xmlns="http://www.w3.org/2000/svg" width="283" height="283" viewBox="0 0 283.5 283.5"><style>.a{fill:#999;}</style><path d="M141.7 0C63.6 0 0 63.6 0 141.7s63.6 141.7 141.7 141.7c78.2 0 141.7-63.6 141.7-141.7S219.9 0 141.7 0zM141.7 273.8c-72.8 0-132.1-59.2-132.1-132.1S68.9 9.7 141.7 9.7c72.8 0 132.1 59.2 132.1 132.1S214.6 273.8 141.7 273.8z" fill="#999"/><path d="M141.7 152.7L50.3 92.3c-0.4 1.6-0.7 3.3-0.7 5v88.9c0 10.9 8.9 19.8 19.8 19.8h144.7c10.9 0 19.8-8.9 19.8-19.8V97.3c0-1.7-0.2-3.4-0.7-5L141.7 152.7z" class="a"/><path d="M141.7 131.3l79.7-52.4c-2.3-0.9-4.8-1.4-7.4-1.4H69.4c-2.6 0-5.1 0.5-7.4 1.4L141.7 131.3z" class="a"/></svg>
