<svg xmlns="http://www.w3.org/2000/svg" width="283" height="283" viewBox="0 0 283.5 283.5"><style>.a{fill:#000;}</style><path d="M283.5 28.3c0 15.6-12.8 28.3-28.3 28.3H28.3C12.8 56.7 0 43.9 0 28.3 0 12.8 12.8 0 28.3 0h226.8C270.7 0 283.5 12.8 283.5 28.3z" class="a"/><path d="M283.5 255.1c0 15.6-12.8 28.3-28.3 28.3H28.3C12.8 283.5 0 270.7 0 255.1c0-15.6 12.8-28.3 28.3-28.3h226.8C270.7 226.8 283.5 239.5 283.5 255.1z" class="a"/><path d="M283.5 141.7c0 15.6-12.8 28.3-28.3 28.3H28.3C12.8 170.1 0 157.3 0 141.7c0-15.6 12.8-28.3 28.3-28.3h226.8C270.7 113.4 283.5 126.1 283.5 141.7z" class="a"/></svg>
