<svg xmlns="http://www.w3.org/2000/svg" width="283" height="283" viewBox="0 0 283.5 283.5"><path d="M141.7 0C63.6 0 0 63.6 0 141.7s63.6 141.7 141.7 141.7c78.2 0 141.7-63.6 141.7-141.7S219.9 0 141.7 0zM141.7 273.8c-72.8 0-132.1-59.2-132.1-132.1S68.9 9.7 141.7 9.7c72.8 0 132.1 59.2 132.1 132.1S214.6 273.8 141.7 273.8z" fill="#999"/><path d="M251.1 158.7c-36.5-36.5-73.1-73-109.3-109.1 -8.9 8.9-17.8 17.8-26.7 26.7 0.1-3.5 0-7 0-10.5 -9.8 0-19.3 0-28.9 0 0 13.2 0 26.2 0 39.2 -17.9 17.9-35.9 35.8-53.8 53.7 5.1 5.1 10.4 10.4 15.7 15.7 7.7-7.7 15.3-15.3 23-23 -1.8 3-2.8 6.4-2.8 10.1 -0.1 21.3 0 42.5 0 63.8 0 5.6 3 8.5 8.6 8.5 12.8 0 25.6 0 38.5 0 0.7 0 1.4-0.1 2.3-0.1 0-1 0-1.8 0-2.7 0-12.7 0-25.5 0-38.2 0-5.9 2.9-8.8 8.8-8.8 10.2 0 20.4 0 30.6 0 5.8 0 8.8 3 8.8 8.9 0 10.2 0 20.4 0 30.6 0 3.4 0 6.8 0 10.3 1 0 1.7 0.1 2.4 0.1 12.8 0 25.6 0 38.5 0 5.4 0 8.4-3 8.4-8.4 0-21.2 0-42.4 0-63.6 0-3.8-1-7.3-2.9-10.4 7.6 7.6 15.3 15.3 22.8 22.9C240.5 169.1 245.9 163.8 251.1 158.7z" fill="#999"/></svg>
