<svg xmlns="http://www.w3.org/2000/svg" width="283" height="283" viewBox="0 0 283.5 283.5"><style>.a{fill:#000;}</style><path d="M55.5 96.6c3.2 0 5.9 3.2 5.9 7v76.3c0 3.9-2.7 7-5.9 7 -3.2 0-5.9-3.2-5.9-7v-76.2C49.6 99.7 52.3 96.6 55.5 96.6z" class="a"/><path d="M144.9 184.1c-4.3 2-12.9 4.3-24 4.3 -25.3 0-44.5-16.2-44.5-45.8 0-28.3 19.2-47.3 47.2-47.3 11.1 0 18.4 2.3 21.4 3.9l-0.8 2.8c-1.1 3.7-5 5.7-8.6 4.4 0 0-4.1-1.4-11.6-1.4 -21.2 0-35.2 13.5-35.2 37.3 0 22.1 12.7 36.3 34.7 36.3 7.1 0 12.3-1.6 12.3-1.6 3.7-1.2 7.5 1 8.5 4.7L144.9 184.1z" class="a"/><path d="M233.9 141.6c0 30-19.2 46.8-41.9 46.8 -24.4 0-40.6-19.2-40.6-46.1 0-27.7 17.3-47.2 42.2-47.2C219.3 95.1 233.9 115.5 233.9 141.6zM163.8 141.9c0 20.5 10.5 37 28.8 37 19 0 28.9-17.3 28.9-37 0-18.5-9-37.3-28.8-37.3C174 104.6 163.8 121.5 163.8 141.9z" class="a"/><path d="M141.7 0C63.5 0 0 63.5 0 141.7c0 78.3 63.5 141.7 141.7 141.7 78.3 0 141.7-63.5 141.7-141.7C283.5 63.5 220 0 141.7 0zM141.7 273.5c-72.8 0-131.8-59-131.8-131.8S68.9 9.9 141.7 9.9s131.8 59 131.8 131.8S214.5 273.5 141.7 273.5z" class="a"/></svg>
