<svg xmlns="http://www.w3.org/2000/svg" width="283" height="283" viewBox="0 0 283.5 283.5"><style>.a{fill:#ddd;}</style><path d="M141.7 0C63.5 0 0 63.5 0 141.7c0 78.3 63.5 141.7 141.7 141.7 78.3 0 141.7-63.5 141.7-141.7C283.5 63.5 220 0 141.7 0zM141.7 262.2c-66.5 0-120.5-53.9-120.5-120.5 0-66.5 53.9-120.5 120.5-120.5 66.5 0 120.5 53.9 120.5 120.5C262.2 208.3 208.3 262.2 141.7 262.2z" class="a"/><circle cx="141.7" cy="83.8" r="12.8" class="a"/><path d="M141.7 110.4c-7 0-12.8 5.7-12.8 12.8v76.5c0 7 5.7 12.8 12.8 12.8 7 0 12.8-5.7 12.8-12.8v-76.5C154.5 116.1 148.8 110.4 141.7 110.4z" class="a"/></svg>
